# xmcd
#
# Track frame offsets:
#	150
#	7567
#	23282
#	32574
#	45792
#	56752
#	66152
#	78597
#	87765
#	98805
#	111715
#	124710
#	140312
#	147577
#	157974
#	171812
#	181075
#	191773
#	203733
#	216546
#
# Disc length: 3033
#
# Revision: 2
# Processed by: cddbd v1.5.1PL0 Copyright (c) Steve Scherf et al.
# Submitted via: EasyCDDAExtractor 6.2.0.3
# Normalized: r1:DSETVAR1
#
DISCID=070bd714
DTITLE=Various Artist - The Pioneers Of Bluegrass
DYEAR=2002
DGENRE=Bluegrass
TTITLE0=Bill Monroe - Going Across The Sea
TTITLE1=Bill Monroe and The Bluegrass Boys - With Body And Soul
TTITLE2=Mac Wiseman - Jimmy Brown The Newsboy
TTITLE3=The Osbourne Brothers - The Prisoner's Song
TTITLE4=The Smith Brothers' Orchestra - Little Footprints in the snow
TTITLE5=Grandpa Jones - Are You From Dixie?
TTITLE6=Don Reno And The Tennessee Cut-Ups - Cincinnatti Rag
TTITLE7=Merle Travis - There Ain't A Cow In Texas
TTITLE8=Jim and Jesse - Golden Rocket
TTITLE9=The Osbourne Brothers and Mac Wiseman - Pins And Needles
TTITLE10=The Seldom Scene - Little Georgia Rose
TTITLE11=Lester Flatt And The Nashville Grass - Will The Circle Be Unbroken
TTITLE12=Chubby Wise - Chubbys Cacklin' Hen
TTITLE13=Don Reno And Bill Harrell - Bringin' In The Georgia Mail
TTITLE14=Jim and Jesse - Great Speckled Bird
TTITLE15=The Stoneman Family - Tupelo County Jail
TTITLE16=Lester Flatt And The Nashville Grass - Roll In My Sweet Baby's Arms
TTITLE17=Kenny Baker, Josh Graves, Eddie Adcock, Jesse McReynolds - Tyler's Tuition
TTITLE18=Benny Martin - Wabash Cannonball
TTITLE19=The Osbourne Brothers - Sunny Side of the Mountain
EXTD=
EXTT0=
EXTT1=
EXTT2=
EXTT3=
EXTT4=
EXTT5=
EXTT6=
EXTT7=
EXTT8=
EXTT9=
EXTT10=
EXTT11=
EXTT12=
EXTT13=
EXTT14=
EXTT15=
EXTT16=
EXTT17=
EXTT18=
EXTT19=
PLAYORDER=
